<?xml version="1.0" encoding="utf-8"?>
<!-- Generator: Adobe Illustrator 17.1.0, SVG Export Plug-In . SVG Version: 6.00 Build 0)  -->
<!DOCTYPE svg PUBLIC "-//W3C//DTD SVG 1.1//EN" "http://www.w3.org/Graphics/SVG/1.1/DTD/svg11.dtd">
<svg version="1.1" xmlns="http://www.w3.org/2000/svg" xmlns:xlink="http://www.w3.org/1999/xlink" x="0px" y="0px"
	 viewBox="0 0 496.933 299.128" enable-background="new 0 0 496.933 299.128" xml:space="preserve">
<g id="Layer_1">
</g>
<g id="Layer_2">
	<g>
		<path fill="#F385A4" stroke="#FFFFFF" stroke-miterlimit="10" d="M197.096,96.852c0,0,49.761-51.948,26.247,9.296
			C223.344,106.148,239.475,58.848,197.096,96.852z"/>
		<path fill="#F385A4" stroke="#FFFFFF" stroke-miterlimit="10" d="M234.553,122.826c0,0,69.173-37.731,94.6-7.655
			s-76.555,26.247-76.555,26.247s84.21-5.468,71.907-22.966S254.786,106.968,234.553,122.826z"/>
		<path fill="#F385A4" stroke="#FFFFFF" stroke-miterlimit="10" d="M224.711,111.175c0,0,66.439-9.676,71.36,34.343
			C296.071,145.519,278.299,104.173,224.711,111.175z"/>
		<path fill="#F385A4" stroke="#FFFFFF" stroke-miterlimit="10" d="M226.078,127.896c0,0,113.192-9.992,55.229,53.166
			s-75.461-15.311-75.461-15.311s26.521,66.746,71.087,12.594S231.819,128.865,226.078,127.896z"/>
		<path fill="#F385A4" stroke="#FFFFFF" stroke-miterlimit="10" d="M215.838,212.214c0,0,109.49,7.951,31.294-46.184
			C247.132,166.03,317.421,213.559,215.838,212.214z"/>
		<path fill="#FFFFFF" stroke="#F385A4" stroke-miterlimit="10" d="M291.696,250.782"/>
		<path fill="none" stroke="#F385A4" stroke-miterlimit="10" d="M205.845,116.811c0,0,79.016-50.83,94.873,11.085"/>
		<path fill="none" stroke="#F385A4" stroke-miterlimit="10" d="M234.553,139.504c0,0,69.993-26.247,58.236,114.012"/>
		<path fill="none" stroke="#F385A4" stroke-miterlimit="10" d="M109.331,127.319c0,0-94.6,4.563-108.817,51.026"/>
		<path fill="none" stroke="#F385A4" stroke-miterlimit="10" d="M68.593,137.557c-6.562,4.407-69.173,54.715-68.079,80.962"/>
		<path fill="none" stroke="#F385A4" stroke-miterlimit="10" d="M86.092,180.242c0,0-40.191,79.562-15.311,105.263"/>
		<path fill="none" stroke="#F385A4" stroke-miterlimit="10" d="M125.463,230.823c0,0,3.008,65.345,55.502,67.806"/>
		<path fill="none" stroke="#F385A4" stroke-miterlimit="10" d="M175.223,225.628c0,0,42.925,30.622,41.012,43.199"/>
		<path fill="none" stroke="#F385A4" stroke-miterlimit="10" d="M240.842,192.819c0,0,29.802,62.064,5.742,80.656"/>
		<path fill="#F385A4" stroke="#FFFFFF" stroke-miterlimit="10" d="M101.949,182.76c0,0-34.92,25.096-27.576,39.861
			c7.344,14.764,39.606-13.944,39.606-13.944s-35.543,22.146-35.817,11.483C77.889,209.497,86.912,191.293,101.949,182.76z"/>
		<path fill="#F385A4" stroke="#FFFFFF" stroke-miterlimit="10" d="M89.646,162.99c0,0-0.194,0.217-0.557,0.629
			c-6.284,7.114-63.345,72.245-47.837,74.313c16.405,2.187,54.409-42.395,54.409-42.395s-52.406,47.056-52.495,37.337
			C43.166,232.873,35.237,228.309,89.646,162.99z"/>
		<path fill="#F385A4" stroke="#FFFFFF" stroke-miterlimit="10" d="M142.414,147.636c0,0-46.206,18.662-36.09,99.592
			c0,0,18.045,53.315,36.09-22.693s6.288-79.016,6.288-79.016s9.296,9.569-9.296,76.281s-28.981,26.247-30.075,23.787
			C108.238,243.126,100.856,169.165,142.414,147.636z"/>
		<path fill="#F385A4" stroke="#FFFFFF" stroke-miterlimit="10" d="M135.579,230.823c0,0,5.742,30.349,24.88-1.367
			C160.459,229.456,143.781,268.827,135.579,230.823z"/>
		<path fill="#F385A4" stroke="#FFFFFF" stroke-miterlimit="10" d="M164.014,172.04c0,0-8.476,62.064,30.075,89.679
			c0,0,25.427,25.701,23.787-28.571c-1.64-54.272-22.115-85.511-22.115-85.511s21.295,43.816,18.561,85.511
			c-2.734,41.695-18.561,26.931-18.561,26.931S159.366,237.931,164.014,172.04z"/>
		<path fill="#F385A4" stroke="#FFFFFF" stroke-miterlimit="10" d="M165.381,225.628c0,0,16.131,26.247,22.693-11.21
			c0,0,21.326,31.442,38.004,0c0,0-4.101,31.442-37.457,4.101C188.62,218.519,187.253,256.523,165.381,225.628z"/>
		<path fill="#F385A4" stroke="#FFFFFF" stroke-miterlimit="10" d="M113.979,135.403c0,0-82.57,17.498-62.338,44.839
			s59.877-16.131,59.877-16.131s-41.012,38.311-57.69,14.234S104.957,139.504,113.979,135.403z"/>
		<path fill="#F385A4" stroke="#FFFFFF" stroke-miterlimit="10" d="M104.876,122.555c0,0-130.883,22.531-99.44,60.204
			c0,0,21.026,12.43,55.776-15.095c0,0-30.075,19.172-50.854,10.68C-10.422,169.852,22.499,140.877,104.876,122.555z"/>
		<path fill="#F385A4" stroke="#FFFFFF" stroke-miterlimit="10" d="M93.669,135.403c0,0-37.926-45.66,38.903-18.592
			C132.571,116.811,67.89,91.93,93.669,135.403z"/>
		<path fill="#F385A4" stroke="#FFFFFF" stroke-miterlimit="10" d="M125.121,82.771c0,0,17.225,13.944,13.944,33.014
			C139.065,115.785,134.349,91.794,125.121,82.771z"/>
		<path fill="#F385A4" stroke="#FFFFFF" stroke-miterlimit="10" d="M192.13,72.818c0,0-6.788,13.309-0.43,26.46
			C191.7,99.278,188.856,81.069,192.13,72.818z"/>
		<path fill="#F385A4" stroke="#FFFFFF" stroke-miterlimit="10" d="M131.544,27.863c0,0,17.617-9.977,7.42-23.666
			C138.964,4.197,153.226,18.918,131.544,27.863z"/>
		<path fill="#F385A4" stroke="#FFFFFF" stroke-miterlimit="10" d="M165.244,17.603c0,0-20.238-0.596-17.613-17.463
			C147.631,0.14,141.894,19.818,165.244,17.603z"/>
		<g>
			<path fill="#F385A4" stroke="#FFFFFF" stroke-miterlimit="10" d="M175.139,21.004c0,0,20.189,10.47,30.329,1.796
				s25.273,9.984,15.526,15.566s-10.011-7.178-5.993-5.626c0,0-7.923,1.713-2.263,7.608s17.069,0.587,14.992-9.405
				c-2.076-9.993-17.921-17.554-23.696-10.845S178.431,22.7,175.139,21.004z"/>
		</g>
		<g>
			<path fill="#F385A4" stroke="#FFFFFF" stroke-miterlimit="10" d="M124.677,33.76c0,0-14.961,17.128-27.571,12.764
				S77.235,65.06,88.349,66.69s6.692-10.342,3.521-7.428c0,0,8-1.303,4.889,6.253c-3.112,7.557-15.671,6.789-17.394-3.27
				s10.26-22.892,18.088-18.76S122.233,36.543,124.677,33.76z"/>
		</g>
	</g>
	<g>
		<rect x="313.272" y="47.332" fill="none" width="183.661" height="80.887"/>
		<text transform="matrix(1 0 0 1 313.2726 88.6213)" font-family="'FollowYouIntotheWorld'" font-size="61">Sassy</text>
	</g>
	<g>
		<rect x="361.272" y="104.226" fill="none" width="130.667" height="80.887"/>
		<text transform="matrix(1 0 0 1 361.2726 145.5156)" font-family="'FollowYouIntotheWorld'" font-size="61">&amp;</text>
	</g>
	<g>
		<rect x="313.729" y="156.424" fill="none" width="176.994" height="79.403"/>
		<text transform="matrix(1 0 0 1 313.7294 197.7132)" font-family="'FollowYouIntotheWorld'" font-size="61">Classy</text>
	</g>
</g>
</svg>
